<?xml version="1.0" standalone="no"?><!DOCTYPE svg PUBLIC "-//W3C//DTD SVG 1.1//EN" "http://www.w3.org/Graphics/SVG/1.1/DTD/svg11.dtd">
<svg class="icon" width="64px" height="64.00px" viewBox="0 0 1024 1024" version="1.1" xmlns="http://www.w3.org/2000/svg">
  <path
    d="M64.233 367.361c-12.546 42.701-19.255 87.904-19.255 134.623 0 52.69 8.556 103.453 24.36 150.903 3.329 9.998 14.134 15.4 24.132 12.071s15.401-14.133 12.074-24.131c-14.531-43.633-22.405-90.283-22.405-138.844 0-43.06 6.18-84.618 17.709-123.867 2.968-10.106-2.817-20.712-12.931-23.683-10.108-2.971-20.712 2.819-23.684 12.928zM516.637 24.97c-93.12 1.021-179.985 28.797-253.026 75.969-73.055 47.172-132.377 113.725-170.718 192.431-4.619 9.475-0.679 20.899 8.795 25.511 9.474 4.617 20.895 0.678 25.51-8.795 35.258-72.387 89.89-133.688 157.111-177.086 67.235-43.405 146.973-68.92 232.749-69.874 10.536-0.115 18.985-8.754 18.872-19.291-0.121-10.536-8.755-18.984-19.293-18.865zM998.992 488.365C995.754 372.336 950.938 266.525 879 185.524 807.071 104.503 707.92 48.091 595.898 30.657c-10.413-1.622-20.169 5.505-21.79 15.917-1.617 10.412 5.509 20.168 15.923 21.786 102.986 16.032 194.19 67.897 260.43 142.497 66.228 74.619 107.389 171.772 110.39 278.576 0.292 10.536 9.074 18.836 19.604 18.541 10.533-0.294 18.835-9.072 18.537-19.609zM477.021 886.604c-8.893 24.653-17.893 45.678-25.542 62.101-4.453 9.556-0.316 20.908 9.238 25.354 9.55 4.449 20.903 0.316 25.352-9.238 8.072-17.336 17.516-39.396 26.853-65.27 3.572-9.911-1.564-20.853-11.479-24.424-9.911-3.572-20.844 1.564-24.422 11.477zM503.467 506.563c0.253 0.97 15.336 63.233 15.318 147.669 0 31.923-2.148 66.995-7.991 103.11-3.258 20.15-7.354 39.498-11.969 57.835-2.57 10.217 3.63 20.587 13.853 23.156 10.219 2.568 20.589-3.633 23.16-13.85 4.85-19.305 9.177-39.723 12.626-61.05 6.226-38.498 8.475-75.577 8.482-109.202-0.025-90.336-16.204-155.831-16.434-156.832-2.528-10.228-12.875-16.471-23.103-13.942-10.229 2.532-16.471 12.873-13.942 23.106zM590.588 732.176a526.282 526.282 0 0 1-3.467 25.144l-0.019 0.11 0.014-0.088c-13.558 83.884-37.541 155.111-53.541 195.556-3.877 9.798 0.927 20.885 10.729 24.759 9.798 3.878 20.884-0.926 24.757-10.729 16.796-42.505 41.557-115.986 55.726-203.494l-0.006 0.025a564.864 564.864 0 0 0 3.727-26.961c1.193-10.467-6.33-19.926-16.8-21.119-10.466-1.193-19.927 6.332-21.119 16.802v-0.005z"
    fill="#9B9994"/>
  <path
    d="M407.055 949.163c22.146-43.569 49.279-108.352 62.612-185.085 6.744-38.933 9.148-76.522 9.148-110.595 0-65.141-8.801-117.58-13.19-141.463l0.007 0.026 0.014 0.068a57.468 57.468 0 0 1-0.896-10.131c0.009-15.866 6.377-30.059 16.766-40.479 10.42-10.385 24.609-16.754 40.476-16.764 13.637 0.01 25.987 4.699 35.833 12.598 9.83 7.909 16.981 18.98 19.91 31.608l-0.01-0.024 0.005 0.014c0.351 1.451 17.053 75.439 17.03 167.016 0 0.727-0.004 1.461-0.004 2.201-0.03 10.541 8.493 19.104 19.031 19.133 10.538 0.024 19.101-8.495 19.127-19.033 0-0.764 0.006-1.532 0.006-2.301-0.027-97.643-17.825-174.729-18.009-175.605l-0.009-0.025c-4.912-21.174-16.838-39.591-33.161-52.718a95.095 95.095 0 0 0-59.75-21.022c-26.285-0.01-50.253 10.709-67.46 27.943-17.234 17.202-27.952 41.171-27.942 67.46 0 5.732 0.509 11.366 1.486 16.842l0.015 0.072 0.006 0.023c4.196 22.815 12.559 72.784 12.559 134.562 0 32.274-2.286 67.722-8.586 104.075-12.42 71.661-38.095 133.169-59.03 174.309-4.773 9.393-1.035 20.878 8.361 25.658 9.392 4.776 20.877 1.035 25.655-8.363zM898.035 639.473c0.146 8.161 0.227 16.5 0.227 24.995 0 22.701-0.576 46.523-1.936 71.09-0.584 10.52 7.475 19.523 17.992 20.107 10.523 0.58 19.525-7.478 20.11-18 1.403-25.329 1.994-49.852 1.994-73.197 0-8.733-0.081-17.306-0.237-25.695-0.192-10.538-8.893-18.919-19.425-18.728-10.536 0.194-18.922 8.892-18.725 19.428zM379.772 168.389c43.666-18.617 91.696-28.935 142.218-28.935 91.552 0.004 175.168 34.077 239.16 90.256 63.971 56.191 108.081 134.369 120.383 222.44l0.062 0.424 0.076 0.425 0.015 0.076c0.396 2.138 8.171 45.146 12.929 111.045 0.758 10.508 9.893 18.411 20.401 17.653 10.514-0.758 18.415-9.893 17.657-20.4-5.04-69.864-13.384-114.813-13.479-115.353l-18.761 3.491 18.896-2.642c-13.615-97.438-62.396-183.832-132.997-245.834-70.578-62.01-163.225-99.752-264.341-99.743-55.731-0.004-108.914 11.405-157.185 31.993-9.692 4.131-14.202 15.341-10.066 25.034 4.13 9.692 15.34 14.201 25.032 10.07zM156.728 759.99c4.87-12.421 9.124-25.668 12.372-39.625 4.161-17.947 5.597-37.309 5.61-56.686-0.024-38.312-5.756-76.754-10.289-101.545l-18.771 3.444 18.817-3.152a365.81 365.81 0 0 1-5.007-60.442c0.005-62.074 15.566-120.366 42.999-171.41 27.433-51.037 66.767-94.774 114.258-127.464 8.683-5.972 10.877-17.855 4.901-26.536-5.979-8.677-17.855-10.872-26.539-4.898-52.476 36.124-95.897 84.407-126.229 140.827-30.339 56.413-47.555 121-47.55 189.48a404.15 404.15 0 0 0 5.534 66.748l0.027 0.142 0.025 0.146c4.309 23.392 9.683 60.154 9.665 94.66 0.01 17.404-1.385 34.207-4.619 48.037-2.785 11.982-6.472 23.479-10.731 34.35-3.844 9.808 0.988 20.88 10.799 24.729 9.809 3.845 20.88-0.991 24.728-10.805z"
    fill="#9B9994"/>
  <path
    d="M602.678 187.731c-25.818-6.616-52.869-10.123-80.688-10.117-89.518-0.009-170.728 36.333-229.366 95.001-58.668 58.64-95.014 139.851-95.003 229.368 0 16.79 1.288 33.3 3.759 49.438l0.044 0.263 0.047 0.266c4.585 25.101 9.964 61.244 9.958 101.161 0 21.98-1.629 45.086-5.856 68.052-6.253 34.062-17.664 64.748-30.299 90.63-4.623 9.474-0.687 20.899 8.78 25.516 9.469 4.622 20.895 0.692 25.517-8.776 13.862-28.41 26.521-62.313 33.538-100.474 4.723-25.711 6.484-51.083 6.484-74.947-0.007-43.3-5.792-81.714-10.582-108.006l-18.77 3.42 18.862-2.893a287.392 287.392 0 0 1-3.319-43.648c0.008-79.1 32.002-150.531 83.824-202.382 51.85-51.824 123.285-83.816 202.383-83.827 24.618 0 48.468 3.091 71.213 8.921 10.209 2.619 20.601-3.535 23.221-13.742 2.613-10.21-3.54-20.609-13.747-23.224zM845.171 847.165a1144.967 1144.967 0 0 0 7.429-49.878c5.847-46.316 8.002-91.563 8.002-133.247-0.014-120.223-17.906-210.941-18.051-211.737l-18.721 3.69 18.865-2.851C827.287 351.3 764.654 265.065 677.793 217.417c-9.242-5.067-20.837-1.689-25.908 7.55-5.064 9.24-1.684 20.841 7.555 25.906 76.662 42.053 131.976 118.223 145.522 207.973l0.063 0.415 0.087 0.425 0.037 0.187c0.897 4.583 17.308 91.353 17.292 204.167 0 40.363-2.094 84.058-7.703 128.469a1098.93 1098.93 0 0 1-7.179 48.207c-1.78 10.384 5.193 20.248 15.579 22.028 10.388 1.783 20.249-5.19 22.033-15.579z"
    fill="#9B9994"/>
  <path
    d="M721.033 435.229a207.877 207.877 0 0 1 6.571 24.438l18.69-3.821-18.736 3.582c6.698 35.019 19.261 109.925 19.258 199.333 0 27.372-1.175 56.094-4.041 85.419-5.882 60.276-16.991 114.842-28.691 159.653-2.663 10.199 3.448 20.619 13.641 23.282 10.199 2.661 20.622-3.448 23.283-13.644 12.118-46.417 23.628-102.904 29.747-165.58 3-30.718 4.222-60.666 4.222-89.131-0.005-92.925-12.998-170.168-19.939-206.497l-0.023-0.124-0.024-0.12a244.741 244.741 0 0 0-7.776-28.927c-3.354-9.993-14.166-15.374-24.159-12.021-9.99 3.353-15.373 14.171-12.023 24.158zM323.118 704.471c2.208-20.428 3.063-39.825 3.063-57.633-0.015-61.082-9.985-103.483-10.209-104.479l-18.569 4.378 18.717-3.706a210.598 210.598 0 0 1-4.015-41.046c0.008-58.015 23.462-110.367 61.477-148.408 38.041-38.014 90.393-61.469 148.408-61.477 67.396 0.003 127.243 31.687 165.703 81.054 6.474 8.313 18.462 9.807 26.78 3.333 8.315-6.473 9.807-18.46 3.335-26.774-45.317-58.262-116.271-95.778-195.818-95.775-68.433-0.009-130.563 27.796-175.393 72.655-44.859 44.824-72.663 106.96-72.653 175.394 0 16.565 1.629 32.78 4.742 48.465l0.066 0.333 0.08 0.338 6.7-1.577-6.703 1.558 0.003 0.02 6.7-1.577-6.703 1.558c0.072 0.269 9.206 39.712 9.19 95.737 0 16.592-0.795 34.631-2.84 53.53-1.132 10.477 6.438 19.889 16.919 21.021 10.474 1.131 19.885-6.442 21.02-16.922zM268.992 880.998c14.237-27.651 28.553-60.924 39.081-98.315 2.858-10.146-3.053-20.685-13.198-23.535-10.141-2.857-20.679 3.053-23.536 13.198-9.67 34.377-22.97 65.354-36.272 91.18-4.823 9.368-1.14 20.873 8.227 25.701 9.369 4.824 20.874 1.142 25.698-8.229z"
    fill="#9B9994"/>
  <path
    d="M476.025 376.534c14.324-5.248 29.76-8.114 45.965-8.114 32.341 0.01 61.807 11.314 84.917 30.239 23.093 18.931 39.655 45.416 45.908 75.744l0.015 0.071-0.006-0.034c5.93 28.414 18.203 97.81 18.194 182.392 0 28.152-1.356 57.981-4.728 88.529l0.036-0.349-0.036 0.345c-8.629 77.899-27.236 145.616-43.356 193.046-3.392 9.979 1.952 20.818 11.928 24.201 9.977 3.393 20.815-1.949 24.206-11.924 16.786-49.427 36.114-119.671 45.15-201.121l-0.039 0.352 0.039-0.357c3.549-32.136 4.961-63.348 4.961-92.722-0.011-88.247-12.709-159.951-18.996-190.175l0.005 0.034c-8.071-39.115-29.432-73.235-59.093-97.545-29.646-24.323-67.77-38.895-109.105-38.885-20.727-0.005-40.657 3.687-59.094 10.441-9.892 3.625-14.977 14.582-11.353 24.481 3.626 9.891 14.589 14.977 24.482 11.351zM335.879 921.534c23.345-44.582 47.667-103.089 58.032-168.526 5.573-35.242 7.604-69.023 7.604-99.825 0-54.489-6.372-99.715-10.971-126.952l-0.029-0.167-0.034-0.178c-1.464-7.855-2.051-15.145-2.055-23.901 0.011-33.778 12.478-64.459 33.113-88.029 6.946-7.922 6.155-19.977-1.773-26.923-7.925-6.945-19.977-6.152-26.924 1.771-26.473 30.17-42.586 69.887-42.578 113.181-0.005 10.504 0.755 20.545 2.715 30.947l18.75-3.521-18.813 3.179c4.398 26.026 10.438 69.047 10.438 120.594 0 29.116-1.928 60.935-7.135 93.865-9.422 59.742-32.095 114.746-54.142 156.771-4.889 9.337-1.288 20.869 8.047 25.76 9.331 4.892 20.865 1.291 25.755-8.046z"
    fill="#9B9994"/>
</svg>
